<svg xmlns="http://www.w3.org/2000/svg" width="400" height="180" viewBox="0 0 100 45"><g id="christian-aid-logo"><g id="christian-aid-logo-red"><path id="arrow-shape_1_" fill="#E8030B" d="M81.69 36.99l-.14.57L71.54 45H0V0h71.54l27.31 20.09c.7.51 1.15 1.44 1.15 2.36s-.46 1.8-1.15 2.31L83.88 35.68l-.52.08-1.67 1.23z"/><path id="christian-aid-text_1_" fill="#FFF" d="M48.41 35.96l-1.14-13.08-2.92.26-.36-4.18 9.03-.79 1.51 17.26 3.01-.26.38 4.31-12.19 1.07-.38-4.32 3.06-.27zm-13.55-4.14c-1.03 0-1.96.03-2.75.1-3.8.33-5.61 1.52-5.44 3.47.16 1.86 1.41 2.82 3.5 2.64 3.02-.27 4.83-2.49 4.69-6.21zm9.27 8.86l-8.43.74-.26-2.92c-1.51 2.52-3.68 3.83-6.78 4.1-4.63.41-7.89-2.16-8.25-6.24-.39-4.5 2.56-7.52 8.49-8.04l5.61-.49-.15-1.67c-.14-1.58-1.82-2.65-4.41-2.42-2.36.21-3.61 1.44-3.57 3.44l-5.7.5c-.08-5.13 2.66-7.48 8.82-8.02 6.95-.61 10.21 1.4 10.67 6.73l.89 10.21 2.69-.24.38 4.32zm28.42-28.81l-2.97.26-.37-4.22 9.03-.79 2.28 26.03 3.1-.27.25 2.84-2.33 1.69-6.11.54-.38-4.31c-1.65 3.51-4.02 5.26-7.5 5.56-5.37.47-9.69-3.45-10.31-10.59s2.68-11.5 8.52-12.01c2.92-.25 5.43.74 7.45 2.99l-.66-7.72zm-9 16.17c.37 4.22 2.68 6.59 5.78 6.32 3.06-.27 4.96-3.01 4.6-7.23-.38-4.32-2.68-6.59-5.78-6.32-3.29.29-4.98 2.83-4.6 7.23zM4.71 8.01c.05-.93-.47-1.54-1.31-1.58-.97-.05-1.63.71-1.7 2.16-.08 1.48.52 2.35 1.48 2.41.69.04 1.2-.37 1.39-1.11l1.75.09c-.2 1.69-1.42 2.59-3.27 2.5C1.62 12.4 1 11.87 0 10.93v-4.4C1 5.46 1.63 4.9 2.83 4.96c.93.05 1.67.5 2.04 1.27l.07-.95 1.53.08-.13 2.74-1.63-.09zm17.6-1.84l-.07 1.37-.44-.02c-1.53-.08-2.26.86-2.36 2.69l-.08 1.5 1.01.05-.07 1.42-4.01-.21.08-1.42 1.01.05.22-4.31-.96-.05.07-1.38 2.96.16-.07 1.28c.6-.99 1.33-1.21 2.28-1.16l.43.03zm-15.62 6.3l.07-1.42.96.05.38-7.16-.96-.05.07-1.39 2.91.15-.21 4c.7-.88 1.5-1.24 2.6-1.18 1.71.09 2.41 1.01 2.31 2.85l-.16 3.15.95.05-.07 1.42-4.04-.21.07-1.42 1.08.06.17-3.15c.04-.76-.39-1.28-1.14-1.31-1.01-.05-1.76.64-1.82 1.76l-.14 2.53 1.08.06-.07 1.42-4.04-.21zm17.02-.53l.23-4.3-.96-.05.07-1.37 2.97.16-.3 5.68.99.05-.07 1.42-4.01-.21.07-1.42 1.01.04zm2.37-6.6l-2.1-.11.11-2.02 2.1.11-.11 2.02zm2.95 8.35l-1.51-.08.13-2.57 1.51.08c.19.84.67 1.28 1.48 1.32.61.03 1.01-.25 1.03-.65.03-.54-.59-.69-1.83-1.06-1.52-.45-2.17-.86-2.1-2.28.07-1.31 1.09-2.12 2.69-2.03.85.04 1.45.38 1.84 1l.04-.72 1.45.08-.12 2.29-1.44-.09c-.07-.69-.58-1.16-1.39-1.21-.58-.02-.95.23-.97.63-.03.61.66.74 2.07 1.12 1.34.36 1.94 1 1.87 2.26-.07 1.37-1.11 2.22-2.66 2.14-.96-.05-1.63-.42-2.04-1.13l-.05.9zM39.67 8.5l-1.88-.1-.2 3.77c-.02.44.1.66.45.68.43.02.64-.27.67-.87l.01-.2 1.24.06c.01.15.01.31.01.44-.07 1.38-.9 2.07-2.3 1.99-1.51-.08-2.17-.7-2.1-2.01l.21-3.99-1.13-.06.07-1.4 1.13.06.07-1.4 2.05-.63L37.86 7l1.88.1-.07 1.4zm13.81 6.44l.07-1.42.96.05.23-4.31-.96-.05.07-1.38 2.91.16-.06 1.13c.7-.88 1.5-1.24 2.6-1.18 1.71.09 2.41 1.01 2.31 2.84l-.16 3.15.95.05-.07 1.42-4.04-.21.07-1.42 1.08.06.16-3.14c.04-.76-.39-1.28-1.14-1.32-1.01-.05-1.76.64-1.82 1.76l-.13 2.55 1.08.06-.07 1.42-4.04-.22zm-.74-.04l-2.78-.15.05-.96c-.61.75-1.37 1.08-2.39 1.02-1.53-.08-2.47-1.06-2.4-2.41.08-1.48 1.18-2.33 3.13-2.22l1.85.1.03-.55c.03-.52-.47-.94-1.32-.99-.78-.04-1.24.3-1.32.96l-1.88-.1c.21-1.67 1.21-2.31 3.23-2.2 2.29.12 3.25.92 3.16 2.68l-.18 3.36.88.05-.06 1.41zm-2.61-3.31c-.33-.05-.64-.08-.9-.09-1.25-.06-1.89.24-1.93.88-.03.61.33.98 1.02 1.02.99.05 1.68-.59 1.81-1.81zm-8.58 1.3l.22-4.31-.96-.05.07-1.37 2.97.16-.3 5.68.99.05-.07 1.42-4.01-.21.07-1.42 1.02.05zm2.36-6.6l-2.1-.11.11-2.01 2.1.11-.11 2.01z"/></g></g></svg>